# This file uses centimeters as units for non-parametric coordinates.

mtllib Corner.mtl
g default
v -5.529678 3.136478 -0.964473
v -5.529678 3.136478 -0.664655
v -5.529678 0.000000 -4.777946
v -5.529678 0.299819 -4.777946
v -5.529678 0.781546 -2.096748
v -5.529678 0.536057 -1.924627
v -5.529678 1.806904 -1.226742
v -5.529678 1.677052 -0.956502
v -5.529678 0.014811 -3.327286
v -5.529678 0.313128 -3.357250
v -5.529678 0.000000 -4.059868
v -5.529678 0.299819 -4.059868
v -5.529678 0.466321 -2.696892
v -5.529678 0.185281 -2.592453
v -5.529678 1.238306 -1.595844
v -5.529678 1.044331 -1.367229
v -5.529678 2.450363 -1.013445
v -5.529678 2.393082 -0.719150
v -5.529678 0.299819 -5.529671
v -5.529678 0.000000 -5.529671
v -5.231636 3.136478 -0.917269
v -5.324287 3.136478 -0.632124
v -5.307449 2.393082 -0.683951
v -5.234100 1.677052 -0.909687
v -5.107178 1.044331 -1.300312
v -4.934937 0.536057 -1.830429
v -4.728561 0.185281 -2.465572
v -4.501488 0.014811 -3.164436
v -4.275108 0.000000 -3.861164
v -4.053215 0.000000 -4.544090
v -3.820915 0.000000 -5.259033
v -3.820915 0.299819 -5.259033
v -4.053215 0.299819 -4.544090
v -4.275108 0.299819 -3.861164
v -4.492233 0.313128 -3.192932
v -4.696289 0.466321 -2.564896
v -4.881744 0.781546 -1.994127
v -5.036537 1.238306 -1.517738
v -5.150597 1.806904 -1.166700
v -5.216507 2.450363 -0.963842
v -4.962776 3.136478 -0.780275
v -5.139000 3.136478 -0.537717
v -5.106972 2.393082 -0.581804
v -4.967461 1.677052 -0.773826
v -4.726036 1.044331 -1.106112
v -4.398407 0.536057 -1.557056
v -4.005867 0.185281 -2.097340
v -3.573948 0.014811 -2.691830
v -3.143345 0.000000 -3.284504
v -2.721275 0.000000 -3.865437
v -2.279415 0.000000 -4.473602
v -2.279415 0.299819 -4.473602
v -2.721275 0.299819 -3.865437
v -3.143345 0.299819 -3.284504
v -3.556335 0.313128 -2.716072
v -3.944481 0.466321 -2.181831
v -4.297241 0.781546 -1.696306
v -4.591667 1.238306 -1.291063
v -4.808617 1.806904 -0.992455
v -4.933990 2.450363 -0.819894
v -4.749397 3.136478 -0.566903
v -4.991959 3.136478 -0.390674
v -4.947876 2.393082 -0.422705
v -4.755852 1.677052 -0.562218
v -4.423569 1.044331 -0.803637
v -3.972618 0.536057 -1.131268
v -3.432335 0.185281 -1.523806
v -2.837845 0.014811 -1.955729
v -2.245174 0.000000 -2.386330
v -1.664242 0.000000 -2.808403
v -1.056076 0.000000 -3.250259
v -1.056076 0.299819 -3.250259
v -1.664242 0.299819 -2.808403
v -2.245174 0.299819 -2.386330
v -2.813606 0.313128 -1.973341
v -3.347843 0.466321 -1.585194
v -3.833370 0.781546 -1.232439
v -4.238609 1.238306 -0.938012
v -4.537224 1.806904 -0.721061
v -4.709785 2.450363 -0.595688
v -4.612411 3.136478 -0.298038
v -4.897552 3.136478 -0.205389
v -4.845726 2.393082 -0.222229
v -4.619987 1.677052 -0.295575
v -4.229362 1.044331 -0.422497
v -3.699245 0.536057 -0.594743
v -3.064106 0.185281 -0.801112
v -2.365242 0.014811 -1.028187
v -1.668512 0.000000 -1.254568
v -0.985584 0.000000 -1.476465
v -0.270644 0.000000 -1.708763
v -0.270644 0.299819 -1.708763
v -0.985584 0.299819 -1.476465
v -1.668512 0.299819 -1.254568
v -2.336742 0.313128 -1.037447
v -2.964779 0.466321 -0.833385
v -3.535549 0.781546 -0.647931
v -4.011940 1.238306 -0.493142
v -4.362976 1.806904 -0.379084
v -4.565834 2.450363 -0.313171
v -4.565201 3.136478 0.000000
v -4.865021 3.136478 0.000000
v -4.810524 2.393082 0.000000
v -4.573174 1.677052 0.000000
v -4.162445 1.044331 0.000000
v -3.605049 0.536057 0.000000
v -2.937222 0.185281 0.000000
v -2.202393 0.014811 0.000000
v -1.469807 0.000000 0.000000
v -0.751735 0.000000 0.000000
v -0.000003 0.000000 0.000001
v -0.000003 0.299819 0.000001
v -0.751735 0.299819 0.000000
v -1.469807 0.299819 0.000000
v -2.172428 0.313128 0.000000
v -2.832783 0.466321 0.000000
v -3.432926 0.781546 0.000000
v -3.933834 1.238306 0.000000
v -4.302933 1.806904 0.000000
v -4.516235 2.450363 0.000000
vt 0.000000 0.000000
vt 1.000000 0.000000
vt 0.000000 0.000000
vt 1.000000 0.000000
vt 0.000000 0.000000
vt 1.000000 0.000000
vt 0.000000 0.000000
vt 1.000000 0.000000
vt 1.000000 0.000000
vt 0.500000 0.000000
vt 1.000000 0.000000
vt 0.500000 0.000000
vt 1.000000 0.000000
vt 0.250000 0.000000
vt 1.000000 0.000000
vt 0.750000 0.000000
vt 1.000000 0.000000
vt 0.250000 0.000000
vt 1.000000 0.000000
vt 0.750000 0.000000
vt 1.000000 0.000000
vt 0.125000 0.000000
vt 1.000000 0.000000
vt 0.875000 0.000000
vt 1.000000 0.000000
vt 0.625000 0.000000
vt 1.000000 0.000000
vt 0.375000 0.000000
vt 1.000000 0.000000
vt 0.375000 0.000000
vt 1.000000 0.000000
vt 0.625000 0.000000
vt 1.000000 0.000000
vt 0.125000 0.000000
vt 1.000000 0.000000
vt 0.875000 0.000000
vt 0.000000 0.000000
vt 1.000000 0.000000
vt 1.000000 0.000000
vt 0.000000 0.000000
vt 1.000000 0.000000
vt 0.000000 0.000000
vt 0.875000 0.000000
vt 0.750000 0.000000
vt 0.625000 0.000000
vt 0.500000 0.000000
vt 0.375000 0.000000
vt 0.250000 0.000000
vt 0.125000 0.000000
vt 1.000000 0.000000
vt 0.000000 0.000000
vt 1.000000 0.000000
vt 0.000000 0.000000
vt 1.000000 0.000000
vt 0.000000 0.000000
vt 0.875000 0.000000
vt 0.750000 0.000000
vt 0.625000 0.000000
vt 0.500000 0.000000
vt 0.375000 0.000000
vt 0.250000 0.000000
vt 0.125000 0.000000
vt 1.000000 0.000000
vt 0.000000 0.000000
vt 1.000000 0.000000
vt 0.000000 0.000000
vt 0.875000 0.000000
vt 0.750000 0.000000
vt 0.625000 0.000000
vt 0.500000 0.000000
vt 0.375000 0.000000
vt 0.250000 0.000000
vt 0.125000 0.000000
vt 1.000000 0.000000
vt 0.000000 0.000000
vt 1.000000 0.000000
vt 0.000000 0.000000
vt 1.000000 0.000000
vt 0.000000 0.000000
vt 0.875000 0.000000
vt 0.750000 0.000000
vt 0.625000 0.000000
vt 0.500000 0.000000
vt 0.375000 0.000000
vt 0.250000 0.000000
vt 0.125000 0.000000
vt 1.000000 0.000000
vt 0.000000 0.000000
vt 1.000000 0.000000
vt 0.000000 0.000000
vt 0.875000 0.000000
vt 0.750000 0.000000
vt 0.625000 0.000000
vt 0.500000 0.000000
vt 0.375000 0.000000
vt 0.250000 0.000000
vt 0.125000 0.000000
vt 1.000000 0.000000
vt 0.000000 0.000000
vt 1.000000 0.000000
vt 0.000000 0.000000
vt 1.000000 0.000000
vt 0.000000 0.000000
vt 0.875000 0.000000
vt 0.750000 0.000000
vt 0.625000 0.000000
vt 0.500000 0.000000
vt 0.375000 0.000000
vt 0.250000 0.000000
vt 0.125000 0.000000
vt 1.000000 0.000000
vt 0.000000 0.000000
vt 1.000000 0.000000
vt 0.000000 0.000000
vt 0.875000 0.000000
vt 0.750000 0.000000
vt 0.625000 0.000000
vt 0.500000 0.000000
vt 0.375000 0.000000
vt 0.250000 0.000000
vt 0.125000 0.000000
vt 1.000000 0.000000
vt 0.000000 0.000000
vt 1.000000 0.000000
vt 0.000000 0.000000
vt 1.000000 0.000000
vt 0.000000 0.000000
vt 0.875000 0.000000
vt 0.750000 0.000000
vt 0.625000 0.000000
vt 0.500000 0.000000
vt 0.375000 0.000000
vt 0.250000 0.000000
vt 0.125000 0.000000
vt 1.000000 0.000000
vt 0.000000 0.000000
vt 1.000000 0.000000
vt 0.000000 0.000000
vt 0.875000 0.000000
vt 0.750000 0.000000
vt 0.625000 0.000000
vt 0.500000 0.000000
vt 0.375000 0.000000
vt 0.250000 0.000000
vt 0.125000 0.000000
vt 1.000000 0.000000
vt 0.000000 0.000000
vt 1.000000 0.000000
vt 0.000000 0.000000
vt 1.000000 0.000000
vt 0.000000 0.000000
vt 0.875000 0.000000
vt 0.750000 0.000000
vt 0.625000 0.000000
vt 0.500000 0.000000
vt 0.375000 0.000000
vt 0.250000 0.000000
vt 0.125000 0.000000
vn -1.000000 0.000001 0.000000
vn -1.000000 0.000000 0.000000
vn -1.000000 0.000000 0.000000
vn -1.000000 0.000001 0.000000
vn -1.000000 -0.000000 0.000000
vn -1.000000 -0.000000 0.000000
vn -1.000000 -0.000000 0.000000
vn -1.000000 -0.000000 0.000000
vn -1.000000 -0.000000 0.000000
vn -1.000000 0.000000 0.000000
vn -1.000000 0.000000 0.000000
vn -1.000000 -0.000000 0.000000
vn -1.000000 0.000000 0.000000
vn -1.000000 0.000000 0.000000
vn -1.000000 0.000000 0.000000
vn -1.000000 0.000000 0.000000
vn -1.000000 0.000000 0.000000
vn -1.000000 0.000000 0.000000
vn -1.000000 0.000000 0.000000
vn -1.000000 0.000000 0.000000
vn -1.000000 0.000000 0.000000
vn -1.000000 0.000000 0.000000
vn 0.000000 1.000000 0.000000
vn 0.000000 1.000000 0.000000
vn 0.000000 1.000000 0.000001
vn 0.000000 1.000000 0.000001
vn -0.302128 -0.209964 0.929857
vn -0.308188 -0.073108 0.948512
vn -0.156027 -0.072213 0.985110
vn -0.153031 -0.207491 0.966193
vn -0.274945 -0.456464 0.846195
vn -0.139543 -0.451998 0.881037
vn -0.229529 -0.669542 0.706420
vn -0.116838 -0.664956 0.737687
vn -0.169699 -0.835717 0.522283
vn -0.086651 -0.832574 0.547095
vn -0.099256 -0.947012 0.305479
vn -0.050807 -0.945788 0.320785
vn -0.032082 -0.994596 0.098737
vn -0.016441 -0.994462 0.103804
vn -0.002568 -0.999966 0.007902
vn -0.001316 -0.999965 0.008309
vn 0.000000 -1.000000 0.000000
vn 0.000000 -1.000000 0.000000
vn 0.000000 -1.000000 0.000000
vn 0.000000 -1.000000 0.000000
vn 0.000000 -1.000000 0.000000
vn 0.000000 -1.000000 0.000000
vn 0.309015 0.000000 -0.951057
vn 0.309015 0.000000 -0.951057
vn 0.156432 0.000000 -0.987689
vn 0.156432 0.000000 -0.987689
vn 0.000000 1.000000 0.000000
vn 0.000000 1.000000 0.000000
vn 0.000000 1.000000 0.000000
vn 0.000000 1.000000 0.000000
vn 0.002352 0.999971 -0.007240
vn 0.000000 1.000000 0.000000
vn 0.000000 1.000000 0.000000
vn 0.001206 0.999970 -0.007613
vn 0.031127 0.994914 -0.095799
vn 0.015952 0.994787 -0.100716
vn 0.099918 0.946282 -0.307518
vn 0.051145 0.945043 -0.322920
vn 0.170573 0.833853 -0.524971
vn 0.087093 0.830684 -0.549890
vn 0.230536 0.665913 -0.709516
vn 0.117343 0.661312 -0.740876
vn 0.275781 0.451154 -0.848767
vn 0.139960 0.446714 -0.883661
vn 0.302552 0.203470 -0.931162
vn 0.153241 0.201066 -0.967517
vn 0.308233 0.071193 -0.948643
vn 0.156047 0.070321 -0.985243
vn 0.000000 1.000000 0.000000
vn 0.000000 1.000000 0.000000
vn -0.574684 -0.209963 0.790983
vn -0.586212 -0.073106 0.806852
vn -0.522979 -0.456464 0.719815
vn -0.436592 -0.669544 0.600915
vn -0.322788 -0.835717 0.444280
vn -0.188797 -0.947011 0.259856
vn -0.061023 -0.994596 0.083991
vn -0.004884 -0.999966 0.006722
vn 0.000000 -1.000000 0.000000
vn 0.000000 -1.000000 0.000000
vn 0.000000 -1.000000 0.000000
vn 0.587785 0.000000 -0.809017
vn 0.587785 0.000000 -0.809017
vn 0.000000 1.000000 0.000000
vn 0.000000 1.000000 0.000000
vn 0.004475 0.999971 -0.006159
vn 0.000000 1.000000 -0.000000
vn 0.059207 0.994914 -0.081491
vn 0.190057 0.946282 -0.261590
vn 0.324449 0.833853 -0.446567
vn 0.438505 0.665912 -0.603552
vn 0.524565 0.451154 -0.722005
vn 0.575489 0.203470 -0.792094
vn 0.586293 0.071191 -0.806965
vn 0.000000 1.000000 0.000000
vn 0.000000 1.000000 -0.000000
vn -0.790983 -0.209963 0.574683
vn -0.806854 -0.073105 0.586210
vn -0.719816 -0.456463 0.522979
vn -0.600916 -0.669543 0.436592
vn -0.444280 -0.835717 0.322788
vn -0.259857 -0.947011 0.188797
vn -0.083991 -0.994596 0.061023
vn -0.006722 -0.999965 0.004884
vn 0.000000 -1.000000 0.000000
vn 0.000000 -1.000000 0.000000
vn 0.000000 -1.000000 0.000000
vn 0.809017 0.000000 -0.587785
vn 0.809017 0.000000 -0.587785
vn 0.000000 1.000000 0.000000
vn 0.000000 1.000000 0.000000
vn 0.006159 0.999971 -0.004475
vn 0.000000 1.000000 -0.000000
vn 0.081492 0.994914 -0.059207
vn 0.261590 0.946282 -0.190057
vn 0.446566 0.833853 -0.324450
vn 0.603550 0.665913 -0.438506
vn 0.722003 0.451155 -0.524568
vn 0.792093 0.203469 -0.575490
vn 0.806965 0.071191 -0.586294
vn 0.000000 1.000000 -0.000000
vn 0.000000 1.000000 -0.000000
vn -0.929854 -0.209965 0.302137
vn -0.948509 -0.073107 0.308197
vn -0.846193 -0.456464 0.274951
vn -0.706418 -0.669543 0.229532
vn -0.522283 -0.835717 0.169700
vn -0.305480 -0.947011 0.099256
vn -0.098737 -0.994596 0.032082
vn -0.007902 -0.999965 0.002568
vn 0.000000 -1.000000 0.000000
vn 0.000000 -1.000000 0.000000
vn 0.000000 -1.000000 0.000000
vn 0.951057 0.000000 -0.309017
vn 0.951057 0.000000 -0.309017
vn 0.000000 1.000000 0.000000
vn 0.000000 1.000000 0.000000
vn 0.007240 0.999971 -0.002352
vn 0.000000 1.000000 -0.000000
vn 0.095799 0.994914 -0.031127
vn 0.307518 0.946282 -0.099919
vn 0.524971 0.833853 -0.170573
vn 0.709517 0.665912 -0.230536
vn 0.848766 0.451155 -0.275782
vn 0.931161 0.203471 -0.302553
vn 0.948644 0.071191 -0.308231
vn 0.000000 1.000000 0.000000
vn 0.000000 1.000000 0.000000
vn -0.966192 -0.207492 0.153039
vn -0.985108 -0.072213 0.156039
vn -0.881036 -0.451998 0.139545
vn -0.737687 -0.664957 0.116838
vn -0.547096 -0.832573 0.086651
vn -0.320785 -0.945788 0.050807
vn -0.103804 -0.994462 0.016441
vn -0.008309 -0.999965 0.001316
vn 0.000000 -1.000000 0.000000
vn 0.000000 -1.000000 0.000000
vn 0.000000 -1.000000 0.000000
vn 0.987688 0.000000 -0.156434
vn 0.987688 0.000000 -0.156434
vn 0.000000 1.000000 -0.000000
vn 0.000000 1.000000 -0.000000
vn 0.007613 0.999970 -0.001206
vn 0.000000 1.000000 -0.000000
vn 0.100716 0.994787 -0.015952
vn 0.322920 0.945043 -0.051146
vn 0.549889 0.830684 -0.087094
vn 0.740876 0.661312 -0.117344
vn 0.883662 0.446714 -0.139959
vn 0.967517 0.201068 -0.153242
vn 0.985243 0.070320 -0.156052
s 1
g Corner Starters
usemtl initialShadingGroup
f 9/17/1 14/27/2 13/25/3 10/19/4
f 6/11/5 16/31/6 15/29/7 5/9/8
f 8/15/9 18/35/10 17/33/11 7/13/12
f 11/21/13 9/17/1 10/19/4 12/23/14
f 3/6/15 11/21/13 12/23/14 4/8/16
f 14/27/2 6/11/5 5/9/8 13/25/3
f 16/31/6 8/15/9 7/13/12 15/29/7
f 18/35/10 2/4/17 1/2/18 17/33/11
s off
f 4/5/19 19/37/20 20/38/21 3/6/22
s 4
f 22/42/23 21/39/24 1/2/25 2/1/26
s 5
f 23/43/27 22/41/28 2/4/29 18/36/30
f 24/44/31 23/43/27 18/36/30 8/16/32
f 25/45/33 24/44/31 8/16/32 16/32/34
f 26/46/35 25/45/33 16/32/34 6/12/36
f 27/47/37 26/46/35 6/12/36 14/28/38
f 28/48/39 27/47/37 14/28/38 9/18/40
f 29/49/41 28/48/39 9/18/40 11/22/42
f 3/3/43 30/51/44 29/49/41 11/22/42
s 6
f 31/52/45 30/50/46 3/6/47 20/38/48
s 7
f 32/53/49 31/52/50 20/38/51 19/37/52
s 8
f 33/55/53 32/53/54 19/37/55 4/5/56
s 9
f 34/56/57 33/54/58 4/8/59 12/24/60
f 35/57/61 34/56/57 12/24/60 10/20/62
f 36/58/63 35/57/61 10/20/62 13/26/64
f 37/59/65 36/58/63 13/26/64 5/10/66
f 38/60/67 37/59/65 5/10/66 15/30/68
f 39/61/69 38/60/67 15/30/68 7/14/70
f 40/62/71 39/61/69 7/14/70 17/34/72
f 21/40/73 40/62/71 17/34/72 1/7/74
s 4
f 42/66/75 41/63/76 21/39/24 22/42/23
s 5
f 43/67/77 42/65/78 22/41/28 23/43/27
f 44/68/79 43/67/77 23/43/27 24/44/31
f 45/69/80 44/68/79 24/44/31 25/45/33
f 46/70/81 45/69/80 25/45/33 26/46/35
f 47/71/82 46/70/81 26/46/35 27/47/37
f 48/72/83 47/71/82 27/47/37 28/48/39
f 49/73/84 48/72/83 28/48/39 29/49/41
f 30/51/44 50/75/85 49/73/84 29/49/41
s 6
f 51/76/86 50/74/87 30/50/46 31/52/45
s 7
f 52/77/88 51/76/89 31/52/50 32/53/49
s 8
f 53/79/90 52/77/91 32/53/54 33/55/53
s 9
f 54/80/92 53/78/93 33/54/58 34/56/57
f 55/81/94 54/80/92 34/56/57 35/57/61
f 56/82/95 55/81/94 35/57/61 36/58/63
f 57/83/96 56/82/95 36/58/63 37/59/65
f 58/84/97 57/83/96 37/59/65 38/60/67
f 59/85/98 58/84/97 38/60/67 39/61/69
f 60/86/99 59/85/98 39/61/69 40/62/71
f 41/64/100 60/86/99 40/62/71 21/40/73
s 4
f 62/90/101 61/87/102 41/63/76 42/66/75
s 5
f 63/91/103 62/89/104 42/65/78 43/67/77
f 64/92/105 63/91/103 43/67/77 44/68/79
f 65/93/106 64/92/105 44/68/79 45/69/80
f 66/94/107 65/93/106 45/69/80 46/70/81
f 67/95/108 66/94/107 46/70/81 47/71/82
f 68/96/109 67/95/108 47/71/82 48/72/83
f 69/97/110 68/96/109 48/72/83 49/73/84
f 50/75/85 70/99/111 69/97/110 49/73/84
s 6
f 71/100/112 70/98/113 50/74/87 51/76/86
s 7
f 72/101/114 71/100/115 51/76/89 52/77/88
s 8
f 73/103/116 72/101/117 52/77/91 53/79/90
s 9
f 74/104/118 73/102/119 53/78/93 54/80/92
f 75/105/120 74/104/118 54/80/92 55/81/94
f 76/106/121 75/105/120 55/81/94 56/82/95
f 77/107/122 76/106/121 56/82/95 57/83/96
f 78/108/123 77/107/122 57/83/96 58/84/97
f 79/109/124 78/108/123 58/84/97 59/85/98
f 80/110/125 79/109/124 59/85/98 60/86/99
f 61/88/126 80/110/125 60/86/99 41/64/100
s 4
f 82/114/127 81/111/128 61/87/102 62/90/101
s 5
f 83/115/129 82/113/130 62/89/104 63/91/103
f 84/116/131 83/115/129 63/91/103 64/92/105
f 85/117/132 84/116/131 64/92/105 65/93/106
f 86/118/133 85/117/132 65/93/106 66/94/107
f 87/119/134 86/118/133 66/94/107 67/95/108
f 88/120/135 87/119/134 67/95/108 68/96/109
f 89/121/136 88/120/135 68/96/109 69/97/110
f 70/99/111 90/123/137 89/121/136 69/97/110
s 6
f 91/124/138 90/122/139 70/98/113 71/100/112
s 7
f 92/125/140 91/124/141 71/100/115 72/101/114
s 8
f 93/127/142 92/125/143 72/101/117 73/103/116
s 9
f 94/128/144 93/126/145 73/102/119 74/104/118
f 95/129/146 94/128/144 74/104/118 75/105/120
f 96/130/147 95/129/146 75/105/120 76/106/121
f 97/131/148 96/130/147 76/106/121 77/107/122
f 98/132/149 97/131/148 77/107/122 78/108/123
f 99/133/150 98/132/149 78/108/123 79/109/124
f 100/134/151 99/133/150 79/109/124 80/110/125
f 81/112/152 100/134/151 80/110/125 61/88/126
s 4
f 102/138/153 101/135/154 81/111/128 82/114/127
s 5
f 103/139/155 102/137/156 82/113/130 83/115/129
f 104/140/157 103/139/155 83/115/129 84/116/131
f 105/141/158 104/140/157 84/116/131 85/117/132
f 106/142/159 105/141/158 85/117/132 86/118/133
f 107/143/160 106/142/159 86/118/133 87/119/134
f 108/144/161 107/143/160 87/119/134 88/120/135
f 109/145/162 108/144/161 88/120/135 89/121/136
f 90/123/137 110/147/163 109/145/162 89/121/136
s 6
f 111/148/164 110/146/165 90/122/139 91/124/138
s 7
f 112/149/166 111/148/167 91/124/141 92/125/140
s 8
f 113/151/168 112/149/169 92/125/143 93/127/142
s 9
f 114/152/170 113/150/171 93/126/145 94/128/144
f 115/153/172 114/152/170 94/128/144 95/129/146
f 116/154/173 115/153/172 95/129/146 96/130/147
f 117/155/174 116/154/173 96/130/147 97/131/148
f 118/156/175 117/155/174 97/131/148 98/132/149
f 119/157/176 118/156/175 98/132/149 99/133/150
f 120/158/177 119/157/176 99/133/150 100/134/151
f 101/136/178 120/158/177 100/134/151 81/112/152
