# This file uses centimeters as units for non-parametric coordinates.

mtllib Flat.mtl
g default
v -4.565201 3.136478 -4.865013
v -4.865021 3.136478 -4.865013
v -0.751734 0.000000 -4.865013
v -0.751734 0.299819 -4.865013
v -3.432926 0.781546 -4.865013
v -3.605049 0.536057 -4.865013
v -4.302933 1.806904 -4.865013
v -4.573174 1.677052 -4.865013
v -2.202393 0.014811 -4.865013
v -2.172428 0.313128 -4.865013
v -1.469807 0.000000 -4.865013
v -1.469807 0.299819 -4.865013
v -2.832783 0.466321 -4.865013
v -2.937222 0.185281 -4.865013
v -3.933834 1.238306 -4.865013
v -4.162445 1.044331 -4.865013
v -4.516235 2.450363 -4.865013
v -4.810524 2.393082 -4.865013
v -0.000003 0.299819 -4.865013
v -0.000003 0.000000 -4.865013
v -4.565201 3.136478 4.865013
v -4.865021 3.136478 4.865013
v -0.751734 0.000000 4.865013
v -0.751734 0.299819 4.865013
v -3.432926 0.781546 4.865013
v -3.605049 0.536057 4.865013
v -4.302933 1.806904 4.865013
v -4.573174 1.677052 4.865013
v -2.202393 0.014811 4.865013
v -2.172428 0.313128 4.865013
v -1.469807 0.000000 4.865013
v -1.469807 0.299819 4.865013
v -2.832783 0.466321 4.865013
v -2.937222 0.185281 4.865013
v -3.933834 1.238306 4.865013
v -4.162445 1.044331 4.865013
v -4.516235 2.450363 4.865013
v -4.810524 2.393082 4.865013
v -0.000003 0.299819 4.865013
v -0.000003 0.000000 4.865013
v -0.751734 0.000000 0.000000
v -0.000003 0.000000 0.000000
v -0.000003 0.299819 0.000000
v -0.751734 0.299819 0.000000
v -1.469807 0.299819 0.000000
v -2.172428 0.313128 0.000000
v -2.832783 0.466321 0.000000
v -3.432926 0.781546 0.000000
v -3.933834 1.238306 0.000000
v -4.302933 1.806904 0.000000
v -4.516235 2.450363 0.000000
v -4.565201 3.136478 0.000000
v -4.865021 3.136478 0.000000
v -4.810524 2.393082 0.000000
v -4.573174 1.677052 0.000000
v -4.162445 1.044331 0.000000
v -3.605049 0.536057 0.000000
v -2.937222 0.185281 0.000000
v -2.202393 0.014811 0.000000
v -1.469807 0.000000 0.000000
vt 0.000000 0.000000
vt 1.000000 0.000000
vt 0.000000 0.000000
vt 1.000000 0.000000
vt 0.000000 0.000000
vt 1.000000 0.000000
vt 0.000000 0.000000
vt 1.000000 0.000000
vt 1.000000 0.000000
vt 0.500000 0.000000
vt 1.000000 0.000000
vt 0.500000 0.000000
vt 1.000000 0.000000
vt 0.250000 0.000000
vt 1.000000 0.000000
vt 0.750000 0.000000
vt 1.000000 0.000000
vt 0.250000 0.000000
vt 1.000000 0.000000
vt 0.750000 0.000000
vt 1.000000 0.000000
vt 0.125000 0.000000
vt 1.000000 0.000000
vt 0.875000 0.000000
vt 1.000000 0.000000
vt 0.625000 0.000000
vt 1.000000 0.000000
vt 0.375000 0.000000
vt 1.000000 0.000000
vt 0.375000 0.000000
vt 1.000000 0.000000
vt 0.625000 0.000000
vt 1.000000 0.000000
vt 0.125000 0.000000
vt 1.000000 0.000000
vt 0.875000 0.000000
vt 0.000000 0.000000
vt 1.000000 0.000000
vt 1.000000 0.000000
vt 1.000000 0.000000
vt 1.000000 0.000000
vt 1.000000 0.000000
vt 1.000000 0.000000
vt 1.000000 0.000000
vt 1.000000 0.000000
vt 1.000000 0.000000
vt 1.000000 0.000000
vt 1.000000 0.000000
vt 1.000000 0.000000
vt 1.000000 0.000000
vt 1.000000 0.000000
vt 1.000000 0.000000
vt 1.000000 0.000000
vt 1.000000 0.000000
vt 1.000000 0.000000
vt 1.000000 0.000000
vt 0.000000 0.000000
vt 1.000000 0.000000
vt 0.000000 0.000000
vt 0.000000 0.000000
vt 0.125000 0.000000
vt 0.250000 0.000000
vt 0.375000 0.000000
vt 0.500000 0.000000
vt 0.625000 0.000000
vt 0.750000 0.000000
vt 0.875000 0.000000
vt 0.000000 0.000000
vt 0.000000 0.000000
vt 0.125000 0.000000
vt 0.250000 0.000000
vt 0.375000 0.000000
vt 0.500000 0.000000
vt 0.625000 0.000000
vt 0.750000 0.000000
vt 0.875000 0.000000
vt 1.000000 0.000000
vt 0.000000 0.000000
vt 1.000000 0.000000
vt 0.000000 0.000000
vt 1.000000 0.000000
vt 0.000000 0.000000
vt 0.875000 0.000000
vt 0.750000 0.000000
vt 0.625000 0.000000
vt 0.500000 0.000000
vt 0.375000 0.000000
vt 0.250000 0.000000
vt 0.125000 0.000000
vt 1.000000 0.000000
vt 0.000000 0.000000
vt 1.000000 0.000000
vt 0.000000 0.000000
vt 0.875000 0.000000
vt 0.750000 0.000000
vt 0.625000 0.000000
vt 0.500000 0.000000
vt 0.375000 0.000000
vt 0.250000 0.000000
vt 0.125000 0.000000
vn 0.000000 0.000000 -1.000000
vn -0.000000 0.000000 -1.000000
vn -0.000000 0.000000 -1.000000
vn 0.000000 0.000000 -1.000000
vn -0.000000 0.000000 -1.000000
vn 0.000000 0.000000 -1.000000
vn 0.000000 0.000000 -1.000000
vn -0.000000 0.000000 -1.000000
vn 0.000000 0.000000 -1.000000
vn 0.000000 0.000000 -1.000000
vn 0.000000 0.000000 -1.000000
vn 0.000000 0.000000 -1.000000
vn 0.000000 0.000000 -1.000000
vn 0.000000 0.000000 -1.000000
vn 0.000000 0.000000 -1.000000
vn 0.000000 0.000000 -1.000000
vn 0.000000 0.000000 -1.000000
vn 0.000000 0.000000 -1.000000
vn 0.000000 0.000000 -1.000000
vn 0.000000 0.000000 -1.000000
vn 0.000000 0.000000 -1.000000
vn 0.000000 0.000000 -1.000000
vn -0.010209 -0.999948 0.000000
vn 0.000000 -1.000000 0.000000
vn 0.000000 -1.000000 0.000000
vn -0.010209 -0.999948 0.000000
vn -0.125269 -0.992123 0.000000
vn -0.125269 -0.992123 0.000000
vn -0.348338 -0.937369 0.000000
vn -0.348338 -0.937369 0.000000
vn -0.574087 -0.818794 0.000000
vn -0.574087 -0.818794 0.000000
vn -0.762507 -0.646980 0.000000
vn -0.762507 -0.646980 0.000000
vn -0.901346 -0.433100 0.000000
vn -0.901346 -0.433100 0.000000
vn -0.980586 -0.196092 0.000000
vn -0.980586 -0.196092 0.000000
vn -0.997324 -0.073112 0.000000
vn -0.997324 -0.073112 0.000000
vn 0.000000 1.000000 0.000000
vn 0.000000 1.000000 0.000000
vn 0.000000 1.000000 0.000000
vn 0.000000 1.000000 0.000000
vn 0.997463 0.071185 0.000000
vn 0.981095 0.193528 0.000000
vn 0.981095 0.193528 0.000000
vn 0.997463 0.071185 0.000000
vn 0.901345 0.433102 0.000000
vn 0.901345 0.433102 0.000000
vn 0.762507 0.646980 0.000000
vn 0.762507 0.646980 0.000000
vn 0.574086 0.818795 0.000000
vn 0.574086 0.818795 0.000000
vn 0.348338 0.937369 0.000000
vn 0.348338 0.937369 0.000000
vn 0.121259 0.992621 0.000000
vn 0.121260 0.992621 0.000000
vn 0.009368 0.999956 0.000000
vn 0.009368 0.999956 0.000000
vn 0.000000 1.000000 0.000000
vn 0.000000 1.000000 0.000000
vn 0.000000 1.000000 0.000000
vn 0.000000 1.000000 0.000000
vn 0.000000 1.000000 0.000000
vn 0.000000 1.000000 0.000000
vn 1.000000 0.000000 0.000000
vn 1.000000 0.000000 0.000000
vn 1.000000 0.000000 0.000000
vn 1.000000 0.000000 0.000000
vn 0.000000 -1.000000 0.000000
vn 0.000000 -1.000000 0.000000
vn 0.000000 -1.000000 0.000000
vn 0.000000 -1.000000 0.000000
vn 0.000000 0.000000 1.000000
vn 0.000000 0.000000 1.000000
vn -0.000001 0.000000 1.000000
vn -0.000001 0.000000 1.000000
vn -0.000001 0.000000 1.000000
vn -0.000001 0.000000 1.000000
vn 0.000000 0.000000 1.000000
vn 0.000000 0.000000 1.000000
vn 0.000000 0.000000 1.000000
vn 0.000000 0.000000 1.000000
vn 0.000000 0.000000 1.000000
vn 0.000000 0.000000 1.000000
vn 0.000000 0.000000 1.000000
vn 0.000000 0.000000 1.000000
vn 0.000000 0.000000 1.000000
vn 0.000000 0.000000 1.000000
vn 0.000000 0.000000 1.000000
vn 0.000000 0.000000 1.000000
vn 0.000000 0.000000 1.000000
vn 0.000000 0.000000 1.000000
vn 0.000000 0.000000 1.000000
vn 0.000000 0.000000 1.000000
vn 0.000000 -1.000000 0.000000
vn 0.000000 -1.000000 0.000000
vn 1.000000 0.000000 0.000000
vn 1.000000 0.000000 0.000000
vn 0.000000 1.000000 0.000000
vn 0.000000 1.000000 0.000000
vn 0.000000 1.000000 0.000000
vn 0.009368 0.999956 0.000000
vn 0.121260 0.992621 0.000000
vn 0.348338 0.937369 0.000000
vn 0.574086 0.818795 0.000000
vn 0.762507 0.646980 0.000000
vn 0.901345 0.433102 0.000000
vn 0.981095 0.193528 0.000000
vn 0.997463 0.071185 0.000000
vn 0.000000 1.000000 0.000000
vn 0.000000 1.000000 0.000000
vn -0.997324 -0.073112 0.000000
vn -0.980586 -0.196092 0.000000
vn -0.901346 -0.433100 0.000000
vn -0.762507 -0.646980 0.000000
vn -0.574087 -0.818794 0.000000
vn -0.348338 -0.937369 0.000000
vn -0.125269 -0.992123 0.000000
vn -0.010209 -0.999948 0.000000
vn 0.000000 -1.000000 0.000000
s 1
g Flat Starters
usemtl initialShadingGroup
f 9/17/1 14/27/2 13/25/3 10/19/4
f 6/11/5 16/31/6 15/29/7 5/9/8
f 8/15/9 18/35/10 17/33/11 7/13/12
f 11/21/13 9/17/1 10/19/4 12/23/14
f 3/6/15 11/21/13 12/23/14 4/8/16
f 14/27/2 6/11/5 5/9/8 13/25/3
f 16/31/6 8/15/9 7/13/12 15/29/7
f 18/35/10 2/4/17 1/2/18 17/33/11
s off
f 4/5/19 19/37/20 20/38/21 3/6/22
s 4
f 60/100/23 41/78/24 23/60/25 31/61/26
f 31/61/26 29/62/27 59/99/28 60/100/23
f 29/62/27 34/63/29 58/98/30 59/99/28
f 34/63/29 26/64/31 57/97/32 58/98/30
f 26/64/31 36/65/33 56/96/34 57/97/32
f 36/65/33 28/66/35 55/95/36 56/96/34
f 28/66/35 38/67/37 54/94/38 55/95/36
f 38/67/37 22/56/39 53/92/40 54/94/38
s 5
f 22/68/41 21/55/42 52/90/43 53/93/44
s 6
f 21/69/45 37/70/46 51/89/47 52/91/48
f 37/70/46 27/71/49 50/88/50 51/89/47
f 27/71/49 35/72/51 49/87/52 50/88/50
f 35/72/51 25/73/53 48/86/54 49/87/52
f 25/73/53 33/74/55 47/85/56 48/86/54
f 33/74/55 30/75/57 46/84/58 47/85/56
f 30/75/57 32/76/59 45/83/60 46/84/58
f 32/76/59 24/54/61 44/81/62 45/83/60
s 7
f 24/57/63 39/59/64 43/80/65 44/82/66
s 8
f 39/59/67 40/58/68 42/79/69 43/80/70
s 9
f 40/58/71 23/53/72 41/77/73 42/79/74
s 10
f 29/39/75 30/40/76 33/41/77 34/42/78
f 26/43/79 25/44/80 35/45/81 36/46/82
f 28/47/83 27/48/84 37/49/85 38/50/86
f 31/51/87 32/52/88 30/40/76 29/39/75
f 23/53/89 24/54/90 32/52/88 31/51/87
f 34/42/78 33/41/77 25/44/80 26/43/79
f 36/46/82 35/45/81 27/48/84 28/47/83
f 38/50/86 37/49/85 21/55/91 22/56/92
s off
f 24/57/93 23/53/94 40/58/95 39/59/96
s 9
f 42/79/74 41/77/73 3/6/97 20/38/98
s 8
f 43/80/70 42/79/69 20/38/99 19/37/100
s 7
f 44/82/66 43/80/65 19/37/101 4/5/102
s 6
f 45/83/60 44/81/62 4/8/103 12/24/104
f 46/84/58 45/83/60 12/24/104 10/20/105
f 47/85/56 46/84/58 10/20/105 13/26/106
f 48/86/54 47/85/56 13/26/106 5/10/107
f 49/87/52 48/86/54 5/10/107 15/30/108
f 50/88/50 49/87/52 15/30/108 7/14/109
f 51/89/47 50/88/50 7/14/109 17/34/110
f 52/91/48 51/89/47 17/34/110 1/7/111
s 5
f 53/93/44 52/90/43 1/2/112 2/1/113
s 4
f 54/94/38 53/92/40 2/4/114 18/36/115
f 55/95/36 54/94/38 18/36/115 8/16/116
f 56/96/34 55/95/36 8/16/116 16/32/117
f 57/97/32 56/96/34 16/32/117 6/12/118
f 58/98/30 57/97/32 6/12/118 14/28/119
f 59/99/28 58/98/30 14/28/119 9/18/120
f 60/100/23 59/99/28 9/18/120 11/22/121
f 3/3/122 41/78/24 60/100/23 11/22/121
