# This file uses centimeters as units for non-parametric coordinates.

mtllib walls.mtl
g default
v -2.811584 1.931660 2.996223
v -2.811584 1.931660 8.988670
v -2.811584 1.931660 -2.996223
v -2.811584 1.931660 14.981117
v -2.811584 1.931660 -14.981117
v -2.811584 1.931660 -8.988670
v 0.409342 1.931660 18.202045
v 6.401790 1.931660 18.202045
v 6.401790 1.931660 -18.202045
v 6.585341 1.931660 -18.231117
v 6.750925 1.931660 -18.315485
v 6.882333 1.931660 -18.446894
v 6.966702 1.931660 -18.612476
v 6.995773 1.931660 -18.796028
v -0.585979 1.931660 18.044401
v -1.483871 1.931660 17.586903
v -2.196442 1.931660 16.874331
v -2.653941 1.931660 15.976439
v -2.653941 1.931660 -15.976438
v -2.196442 1.931660 -16.874331
v -1.483871 1.931660 -17.586901
v -0.585979 1.931660 -18.044399
v 0.409343 1.931660 -18.202044
v 6.995774 1.931660 18.796028
v 6.966702 1.931660 18.612476
v 6.882332 1.931660 18.446894
v 6.750924 1.931660 18.315483
v 6.585340 1.931660 18.231115
v 10.216701 1.931660 28.009403
v 16.209148 1.931660 28.009401
v 6.995773 1.931660 -24.788475
v 9.221379 1.931660 27.851759
v 8.323486 1.931660 27.394260
v 7.610916 1.931660 26.681688
v 7.153417 1.931660 25.783796
v 6.995774 1.931660 24.788475
v 16.209148 1.931660 -28.009401
v 10.216701 1.931660 -28.009401
v 7.153417 1.931660 -25.783796
v 7.610916 1.931660 -26.681688
v 8.323487 1.931660 -27.394258
v 9.221379 1.931660 -27.851757
v -2.811584 10.508557 8.988670
v -2.811584 10.508557 2.996223
v -2.811584 10.508557 -2.996223
v -2.811584 10.508557 14.981117
v -2.811584 10.508557 -8.988670
v -2.811584 10.508557 -14.981117
v 6.401790 10.508557 18.202045
v 0.409342 10.508557 18.202045
v 6.401790 10.508557 -18.202045
v 6.585341 10.508557 -18.231117
v 6.750925 10.508557 -18.315485
v 6.882333 10.508557 -18.446894
v 6.966702 10.508557 -18.612476
v 6.995773 10.508557 -18.796028
v -0.585979 10.508557 18.044401
v -1.483871 10.508557 17.586903
v -2.196442 10.508557 16.874331
v -2.653941 10.508557 15.976439
v -2.653941 10.508557 -15.976438
v -2.196442 10.508557 -16.874331
v -1.483871 10.508557 -17.586901
v -0.585979 10.508557 -18.044399
v 0.409343 10.508557 -18.202044
v 6.995774 10.508557 18.796028
v 6.966702 10.508557 18.612476
v 6.882332 10.508557 18.446894
v 6.750924 10.508557 18.315483
v 6.585340 10.508557 18.231115
v 16.209148 10.508557 28.009401
v 10.216701 10.508557 28.009403
v 6.995773 10.508557 -24.788475
v 9.221379 10.508557 27.851759
v 8.323486 10.508557 27.394260
v 7.610916 10.508557 26.681688
v 7.153417 10.508557 25.783796
v 6.995774 10.508557 24.788475
v 10.216701 10.508557 -28.009401
v 16.209148 10.508557 -28.009401
v 7.153417 10.508557 -25.783796
v 7.610916 10.508557 -26.681688
v 8.323487 10.508557 -27.394258
v 9.221379 10.508557 -27.851757
vt 0.451927 0.106194
vt 1.150643 0.106194
vt 1.150643 1.106194
vt 0.451927 1.106194
vt 1.849358 0.106194
vt 1.849358 1.106194
vt -0.246750 0.106194
vt -0.246750 1.106194
vt 2.548074 0.106194
vt 3.246751 0.106194
vt 3.246751 1.106194
vt 2.548074 1.106194
vt -1.532834 0.106194
vt -0.834202 0.106194
vt -0.834202 1.106194
vt -1.532834 1.106194
vt 4.532835 0.106194
vt 4.554502 0.106194
vt 4.554502 1.106194
vt 4.532835 1.106194
vt 4.576167 0.106194
vt 4.576167 1.106194
vt 4.597832 0.106194
vt 4.597832 1.106194
vt 4.619497 0.106194
vt 4.619497 1.106194
vt 4.641160 0.106194
vt 4.641160 1.106194
vt -0.716715 0.106194
vt -0.716715 1.106194
vt -0.599228 0.106194
vt -0.599228 1.106194
vt -0.481737 0.106194
vt -0.481737 1.106194
vt -0.364245 0.106194
vt -0.364245 1.106194
vt 3.364244 0.106194
vt 3.364244 1.106194
vt 3.481737 0.106194
vt 3.481737 1.106194
vt 3.599227 0.106194
vt 3.599227 1.106194
vt 3.716714 0.106194
vt 3.716714 1.106194
vt 3.834199 0.106194
vt 3.834199 1.106194
vt -1.641159 0.106194
vt -1.619495 0.106194
vt -1.619495 1.106194
vt -1.641159 1.106194
vt -1.597830 0.106194
vt -1.597830 1.106194
vt -1.576166 0.106194
vt -1.576166 1.106194
vt -1.554500 0.106194
vt -1.554500 1.106194
vt -3.625922 0.106194
vt -2.927185 0.106194
vt -2.927185 1.106194
vt -3.625922 1.106194
vt 5.339717 0.106194
vt 5.339717 1.106194
vt -2.809679 0.106194
vt -2.809679 1.106194
vt -2.692177 0.106194
vt -2.692177 1.106194
vt -2.574682 0.106194
vt -2.574682 1.106194
vt -2.457195 0.106194
vt -2.457195 1.106194
vt -2.339716 0.106194
vt -2.339716 1.106194
vt 5.927185 0.106194
vt 6.625923 0.106194
vt 6.625923 1.106194
vt 5.927185 1.106194
vt 5.457195 0.106194
vt 5.457195 1.106194
vt 5.574682 0.106194
vt 5.574682 1.106194
vt 5.692178 0.106194
vt 5.692178 1.106194
vt 5.809680 0.106194
vt 5.809680 1.106194
vn 1.000000 0.000000 0.000000
vn 1.000000 0.000000 0.000000
vn 1.000000 0.000000 0.000000
vn 1.000000 0.000000 0.000000
vn 1.000000 0.000000 0.000000
vn 1.000000 0.000000 0.000000
vn 1.000000 0.000000 0.000000
vn 1.000000 0.000000 0.000000
vn 1.000000 0.000000 0.000000
vn 1.000000 0.000000 0.000000
vn 1.000000 0.000000 0.000000
vn 1.000000 0.000000 0.000000
vn 1.000000 0.000000 0.000000
vn 1.000000 0.000000 0.000000
vn 1.000000 0.000000 0.000000
vn 1.000000 0.000000 0.000000
vn 1.000000 0.000000 0.000000
vn 1.000000 0.000000 0.000000
vn 1.000000 0.000000 0.000000
vn 1.000000 0.000000 0.000000
vn 0.000000 0.000000 -1.000000
vn 0.000000 0.000000 -1.000000
vn 0.000000 0.000000 -1.000000
vn 0.000000 0.000000 -1.000000
vn 0.156434 0.000000 0.987688
vn 0.156434 0.000000 0.987688
vn 0.156434 0.000000 0.987688
vn 0.156434 0.000000 0.987688
vn 0.453986 0.000000 0.891009
vn 0.453986 0.000000 0.891009
vn 0.453986 0.000000 0.891009
vn 0.453986 0.000000 0.891009
vn 0.707108 0.000000 0.707105
vn 0.707108 0.000000 0.707105
vn 0.707108 0.000000 0.707105
vn 0.707108 0.000000 0.707105
vn 0.891006 0.000000 0.453992
vn 0.891006 0.000000 0.453992
vn 0.891006 0.000000 0.453992
vn 0.891006 0.000000 0.453992
vn 0.987688 0.000000 0.156434
vn 0.987688 0.000000 0.156434
vn 0.987688 0.000000 0.156434
vn 0.987688 0.000000 0.156434
vn 0.156435 0.000000 -0.987688
vn 0.156435 0.000000 -0.987688
vn 0.156435 0.000000 -0.987688
vn 0.156435 0.000000 -0.987688
vn 0.453990 0.000000 -0.891007
vn 0.453990 0.000000 -0.891007
vn 0.453990 0.000000 -0.891007
vn 0.453990 0.000000 -0.891007
vn 0.707108 0.000000 -0.707106
vn 0.707108 0.000000 -0.707106
vn 0.707108 0.000000 -0.707106
vn 0.707108 0.000000 -0.707106
vn 0.891006 0.000000 -0.453991
vn 0.891006 0.000000 -0.453991
vn 0.891006 0.000000 -0.453991
vn 0.891006 0.000000 -0.453991
vn 0.987688 0.000000 -0.156435
vn 0.987688 0.000000 -0.156435
vn 0.987688 0.000000 -0.156435
vn 0.987688 0.000000 -0.156435
vn 0.987688 0.000000 0.156435
vn 0.987688 0.000000 0.156435
vn 0.987688 0.000000 0.156435
vn 0.987688 0.000000 0.156435
vn 0.891006 0.000000 0.453991
vn 0.891006 0.000000 0.453991
vn 0.891006 0.000000 0.453991
vn 0.891006 0.000000 0.453991
vn 0.707107 0.000000 0.707107
vn 0.707107 0.000000 0.707107
vn 0.707107 0.000000 0.707107
vn 0.707107 0.000000 0.707107
vn 0.453990 0.000000 0.891007
vn 0.453990 0.000000 0.891007
vn 0.453990 0.000000 0.891007
vn 0.453990 0.000000 0.891007
vn 0.156435 0.000000 0.987688
vn 0.156435 0.000000 0.987688
vn 0.156435 0.000000 0.987688
vn 0.156435 0.000000 0.987688
vn 0.987688 0.000000 -0.156437
vn 0.987688 0.000000 -0.156437
vn 0.987688 0.000000 -0.156437
vn 0.987688 0.000000 -0.156437
vn 0.891004 0.000000 -0.453996
vn 0.891004 0.000000 -0.453996
vn 0.891004 0.000000 -0.453996
vn 0.891004 0.000000 -0.453996
vn 0.707113 0.000000 -0.707101
vn 0.707113 0.000000 -0.707101
vn 0.707113 0.000000 -0.707101
vn 0.707113 0.000000 -0.707101
vn 0.453987 0.000000 -0.891008
vn 0.453987 0.000000 -0.891008
vn 0.453987 0.000000 -0.891008
vn 0.453987 0.000000 -0.891008
vn 0.156425 0.000000 -0.987690
vn 0.156425 0.000000 -0.987690
vn 0.156425 0.000000 -0.987690
vn 0.156425 0.000000 -0.987690
vn -0.000000 0.000000 -1.000000
vn -0.000000 0.000000 -1.000000
vn -0.000000 0.000000 -1.000000
vn -0.000000 0.000000 -1.000000
vn 1.000000 0.000000 0.000000
vn 1.000000 0.000000 0.000000
vn 1.000000 0.000000 0.000000
vn 1.000000 0.000000 0.000000
vn 0.156435 0.000000 -0.987688
vn 0.156435 0.000000 -0.987688
vn 0.156435 0.000000 -0.987688
vn 0.156435 0.000000 -0.987688
vn 0.453990 0.000000 -0.891007
vn 0.453990 0.000000 -0.891007
vn 0.453990 0.000000 -0.891007
vn 0.453990 0.000000 -0.891007
vn 0.707107 0.000000 -0.707107
vn 0.707107 0.000000 -0.707107
vn 0.707107 0.000000 -0.707107
vn 0.707107 0.000000 -0.707107
vn 0.891007 0.000000 -0.453990
vn 0.891007 0.000000 -0.453990
vn 0.891007 0.000000 -0.453990
vn 0.891007 0.000000 -0.453990
vn 0.987688 0.000000 -0.156434
vn 0.987688 0.000000 -0.156434
vn 0.987688 0.000000 -0.156434
vn 0.987688 0.000000 -0.156434
vn 0.000000 0.000000 1.000000
vn 0.000000 0.000000 1.000000
vn 0.000000 0.000000 1.000000
vn 0.000000 0.000000 1.000000
vn 0.000000 0.000000 1.000000
vn 0.000000 0.000000 1.000000
vn 0.000000 0.000000 1.000000
vn 0.000000 0.000000 1.000000
vn 1.000000 0.000000 0.000000
vn 1.000000 0.000000 0.000000
vn 1.000000 0.000000 0.000000
vn 1.000000 0.000000 0.000000
vn 0.987688 0.000000 0.156435
vn 0.987688 0.000000 0.156435
vn 0.987688 0.000000 0.156435
vn 0.987688 0.000000 0.156435
vn 0.891007 0.000000 0.453990
vn 0.891007 0.000000 0.453990
vn 0.891007 0.000000 0.453990
vn 0.891007 0.000000 0.453990
vn 0.707106 0.000000 0.707108
vn 0.707106 0.000000 0.707108
vn 0.707106 0.000000 0.707108
vn 0.707106 0.000000 0.707108
vn 0.453990 0.000000 0.891007
vn 0.453990 0.000000 0.891007
vn 0.453990 0.000000 0.891007
vn 0.453990 0.000000 0.891007
vn 0.156435 0.000000 0.987688
vn 0.156435 0.000000 0.987688
vn 0.156435 0.000000 0.987688
vn 0.156435 0.000000 0.987688
s off
g wall_Flat1
usemtl aiStandardSurface1SG
f 2/1/1 1/2/2 44/3/3 43/4/4
f 1/2/5 3/5/6 45/6/7 44/3/8
f 4/7/9 2/1/10 43/4/11 46/8/12
f 6/9/13 5/10/14 48/11/15 47/12/16
f 3/5/17 6/9/18 47/12/19 45/6/20
f 8/13/21 7/14/22 50/15/23 49/16/24
f 9/17/25 10/18/26 52/19/27 51/20/28
f 10/18/29 11/21/30 53/22/31 52/19/32
f 11/21/33 12/23/34 54/24/35 53/22/36
f 12/23/37 13/25/38 55/26/39 54/24/40
f 13/25/41 14/27/42 56/28/43 55/26/44
f 7/14/45 15/29/46 57/30/47 50/15/48
f 15/29/49 16/31/50 58/32/51 57/30/52
f 16/31/53 17/33/54 59/34/55 58/32/56
f 17/33/57 18/35/58 60/36/59 59/34/60
f 18/35/61 4/7/62 46/8/63 60/36/64
f 5/10/65 19/37/66 61/38/67 48/11/68
f 19/37/69 20/39/70 62/40/71 61/38/72
f 20/39/73 21/41/74 63/42/75 62/40/76
f 21/41/77 22/43/78 64/44/79 63/42/80
f 22/43/81 23/45/82 65/46/83 64/44/84
f 24/47/85 25/48/86 67/49/87 66/50/88
f 25/48/89 26/51/90 68/52/91 67/49/92
f 26/51/93 27/53/94 69/54/95 68/52/96
f 27/53/97 28/55/98 70/56/99 69/54/100
f 28/55/101 8/13/102 49/16/103 70/56/104
f 30/57/105 29/58/106 72/59/107 71/60/108
f 14/27/109 31/61/110 73/62/111 56/28/112
f 29/58/113 32/63/114 74/64/115 72/59/116
f 32/63/117 33/65/118 75/66/119 74/64/120
f 33/65/121 34/67/122 76/68/123 75/66/124
f 34/67/125 35/69/126 77/70/127 76/68/128
f 35/69/129 36/71/130 78/72/131 77/70/132
f 38/73/133 37/74/134 80/75/135 79/76/136
f 23/45/137 9/17/138 51/20/139 65/46/140
f 36/71/141 24/47/142 66/50/143 78/72/144
f 31/61/145 39/77/146 81/78/147 73/62/148
f 39/77/149 40/79/150 82/80/151 81/78/152
f 40/79/153 41/81/154 83/82/155 82/80/156
f 41/81/157 42/83/158 84/84/159 83/82/160
f 42/83/161 38/73/162 79/76/163 84/84/164
