# This file uses centimeters as units for non-parametric coordinates.

mtllib walls.mtl
g default
v -24.379110 1.931660 -2.996223
v -24.379110 1.931660 2.996223
v -24.379110 1.931660 0.000000
v -24.379110 1.931660 8.988647
v -24.379110 1.931660 5.992438
v -24.379122 1.931665 14.981092
v -24.379110 1.931660 11.984876
v -21.382887 1.931665 17.977318
v -22.158384 1.931671 17.875214
v -22.880964 1.931671 17.575905
v -23.501509 1.931671 17.099739
v -23.977674 1.931671 16.479206
v -24.277052 1.931671 15.756569
v -24.379110 1.931660 -8.988647
v -24.379110 1.931660 -5.992437
v -24.379099 1.931665 -14.981094
v -24.277006 1.931671 -15.756569
v -23.977674 1.931671 -16.479218
v -23.501509 1.931671 -17.099751
v -22.880964 1.931671 -17.575905
v -22.158339 1.931671 -17.875225
v -21.382887 1.931665 -17.977318
v -24.379110 1.931660 -11.984875
v -15.390446 1.931660 -17.977318
v -18.386663 1.931660 -17.977318
v -15.390446 1.931660 17.977314
v -18.386663 1.931660 17.977316
v -14.981113 1.931660 -18.386665
v -15.001143 1.931660 -18.260168
v -15.059287 1.931660 -18.146048
v -15.149845 1.931660 -18.055502
v -15.263957 1.931660 -17.997343
v -14.981106 1.931665 -24.379108
v -14.981116 1.931660 -21.382889
v -15.263947 1.931660 17.997341
v -15.149827 1.931660 18.055487
v -15.059281 1.931660 18.146046
v -15.001122 1.931660 18.260157
v -14.981095 1.931659 18.386646
v -14.981108 1.931665 24.379086
v -14.981095 1.931659 21.382870
v -11.984879 1.931665 27.375309
v -12.760372 1.931671 27.273207
v -13.482952 1.931671 26.973898
v -14.103497 1.931671 26.497732
v -14.579662 1.931671 25.877199
v -14.879040 1.931671 25.154562
v -14.879015 1.931671 -25.154583
v -14.579683 1.931671 -25.877232
v -14.103518 1.931671 -26.497765
v -13.482973 1.931671 -26.973919
v -12.760347 1.931671 -27.273239
v -11.984896 1.931665 -27.375332
v -5.992447 1.931659 27.375309
v -8.988656 1.931659 27.375309
v -5.992447 1.931659 -27.375330
v -8.988676 1.931659 -27.375330
v -0.000010 1.931659 27.375309
v -2.996229 1.931659 27.375309
v 0.000000 1.931659 -27.375330
v -2.996228 1.931659 -27.375330
v -24.194471 12.051040 2.996223
v -24.194471 12.051040 0.000000
v -24.194471 12.051040 -2.996223
v -24.194471 12.051040 8.988647
v -24.194471 12.051040 5.992438
v -24.194471 12.051045 14.981092
v -24.194471 12.051040 11.984876
v -21.382887 12.051045 17.792667
v -22.110594 12.051051 17.696869
v -22.788679 12.051051 17.415985
v -23.370955 12.051051 16.969173
v -23.817823 12.051051 16.386875
v -24.098616 12.051051 15.708778
v -24.194471 12.051040 -5.992437
v -24.194471 12.051040 -8.988647
v -24.194471 12.051045 -14.981094
v -24.098661 12.051051 -15.708778
v -23.817732 12.051051 -16.386887
v -23.370955 12.051051 -16.969185
v -22.788679 12.051051 -17.415985
v -22.110548 12.051051 -17.696863
v -21.382887 12.051045 -17.792658
v -24.194471 12.051040 -11.984875
v -18.386663 12.051040 -17.792669
v -15.390446 12.051040 -17.792679
v -15.390446 12.051040 17.792660
v -18.386663 12.051040 17.792665
v -14.825530 12.051040 -18.203108
v -14.796470 12.051040 -18.386665
v -14.909902 12.051040 -18.037512
v -15.041311 12.051040 -17.906111
v -15.206898 12.051040 -17.821745
v -14.796477 12.051040 -21.382889
v -14.796478 12.051045 -24.379108
v -15.206887 12.051040 17.821730
v -15.041291 12.051040 17.906101
v -14.909890 12.051040 18.037510
v -14.825524 12.051040 18.203096
v -14.796456 12.051040 18.386646
v -14.796457 12.051045 24.379086
v -14.796456 12.051040 21.382870
v -11.984879 12.051045 27.190659
v -12.712582 12.051051 27.094862
v -13.390667 12.051051 26.813978
v -13.972942 12.051051 26.367167
v -14.419811 12.051051 25.784868
v -14.700603 12.051051 25.106771
v -14.700670 12.051051 -25.106792
v -14.419741 12.051051 -25.784901
v -13.972963 12.051051 -26.367199
v -13.390688 12.051051 -26.813999
v -12.712557 12.051051 -27.094877
v -11.984896 12.051045 -27.190681
v -5.992447 12.051040 27.190670
v -8.988656 12.051040 27.190670
v -8.988676 12.051040 -27.190691
v -5.992447 12.051040 -27.190691
v -0.000010 12.051040 27.190670
v -2.996229 12.051040 27.190670
v -2.996228 12.051040 -27.190691
v 0.000000 12.051040 -27.190691
vt 0.437827 0.068485
vt 0.568646 0.068485
vt 0.699466 0.068485
vt 0.176374 0.068485
vt 0.307051 0.068485
vt -0.084255 0.068485
vt 0.045888 0.068485
vt -0.287523 0.068485
vt -0.253588 0.068485
vt -0.219700 0.068485
vt -0.185838 0.068485
vt -0.151989 0.068485
vt -0.118134 0.068485
vt 0.830242 0.068485
vt 0.960919 0.068485
vt 1.221549 0.068485
vt 1.255426 0.068485
vt 1.289283 0.068485
vt 1.323133 0.068485
vt 1.356995 0.068485
vt 1.390884 0.068485
vt 1.424818 0.068485
vt 1.091405 0.068485
vt 1.555410 0.068485
vt 1.686871 0.068485
vt -0.549578 0.068485
vt -0.418116 0.068485
vt 1.709446 0.068485
vt 1.715088 0.068485
vt 1.703802 0.068485
vt 1.698156 0.068485
vt 1.692514 0.068485
vt 1.846542 0.068485
vt 1.977129 0.068485
vt -0.555220 0.068485
vt -0.560863 0.068485
vt -0.566507 0.068485
vt -0.572151 0.068485
vt -0.577793 0.068485
vt -0.839834 0.068485
vt -0.709248 0.068485
vt -1.043110 0.068485
vt -1.009228 0.068485
vt -0.975372 0.068485
vt -0.941521 0.068485
vt -0.907661 0.068485
vt -0.873770 0.068485
vt 2.011063 0.068485
vt 2.044956 0.068485
vt 2.078815 0.068485
vt 2.112667 0.068485
vt 2.146523 0.068485
vt 2.180401 0.068485
vt -1.303780 0.068485
vt -1.173262 0.068485
vt 2.310555 0.068485
vt 2.441074 0.068485
vt -1.565376 0.068485
vt -1.434509 0.068485
vt 2.571802 0.068485
vt 2.702671 0.068485
vt 0.568646 0.510767
vt 0.437602 0.510767
vt 0.699691 0.510767
vt 0.306516 0.510767
vt 0.175329 0.510767
vt 0.043952 0.510767
vt -0.087765 0.510767
vt -0.249591 0.510767
vt -0.281893 0.510767
vt -0.217247 0.510767
vt -0.184878 0.510767
vt -0.152496 0.510767
vt -0.120121 0.510767
vt 0.830777 0.510767
vt 0.961965 0.510767
vt 1.257414 0.510767
vt 1.225059 0.510767
vt 1.289792 0.510767
vt 1.322172 0.510767
vt 1.354543 0.510767
vt 1.386887 0.510767
vt 1.419188 0.510767
vt 1.093341 0.510767
vt 1.550444 0.510767
vt 1.680832 0.510767
vt -0.413149 0.510767
vt -0.543537 0.510767
vt 1.721092 0.510767
vt 1.713037 0.510767
vt 1.704987 0.510767
vt 1.696936 0.510767
vt 1.688885 0.510767
vt 1.851480 0.510767
vt 1.982735 0.510767
vt -0.551592 0.510767
vt -0.559643 0.510767
vt -0.567694 0.510767
vt -0.575743 0.510767
vt -0.583796 0.510767
vt -0.714186 0.510767
vt -0.845440 0.510767
vt -1.007204 0.510767
vt -1.039557 0.510767
vt -0.974829 0.510767
vt -0.942451 0.510767
vt -0.910082 0.510767
vt -0.877741 0.510767
vt 2.015036 0.510767
vt 2.047379 0.510767
vt 2.079746 0.510767
vt 2.112123 0.510767
vt 2.144499 0.510767
vt 2.176849 0.510767
vt -1.171255 0.510767
vt -1.302595 0.510767
vt 2.308548 0.510767
vt 2.439888 0.510767
vt -1.433720 0.510767
vt -1.564713 0.510767
vt 2.571014 0.510767
vt 2.702007 0.510767
vn 0.999834 -0.018243 0.000000
vn 0.999834 -0.018243 0.000000
vn 0.999834 -0.018243 0.000000
vn 0.999834 -0.018243 0.000000
vn 0.999834 -0.018243 0.000000
vn 0.999834 -0.018243 0.000000
vn 0.999834 -0.018243 0.000000
vn 0.999834 -0.018243 0.000000
vn 0.999834 -0.018243 0.000000
vn 0.999834 -0.018243 0.000000
vn 0.999834 -0.018243 0.000001
vn 0.999834 -0.018243 0.000001
vn 0.999485 -0.018238 -0.026423
vn 0.999486 -0.018238 -0.026358
vn 0.258778 -0.018243 -0.965765
vn 0.258778 -0.018243 -0.965765
vn 0.026421 -0.018238 -0.999485
vn 0.026357 -0.018238 -0.999486
vn 0.499928 -0.018243 -0.865875
vn 0.499928 -0.018243 -0.865875
vn 0.706982 -0.018242 -0.706997
vn 0.706982 -0.018242 -0.706997
vn 0.865876 -0.018243 -0.499926
vn 0.865876 -0.018243 -0.499925
vn 0.965765 -0.018246 -0.258775
vn 0.965765 -0.018246 -0.258776
vn 0.999834 -0.018243 0.000000
vn 0.999834 -0.018243 0.000000
vn 0.999834 -0.018243 0.000000
vn 0.999834 -0.018243 0.000000
vn 0.965760 -0.018244 0.258795
vn 0.965760 -0.018244 0.258795
vn 0.999485 -0.018236 0.026422
vn 0.999486 -0.018236 0.026358
vn 0.865878 -0.018245 0.499922
vn 0.865878 -0.018245 0.499923
vn 0.706993 -0.018244 0.706985
vn 0.706993 -0.018244 0.706985
vn 0.499911 -0.018243 0.865884
vn 0.499912 -0.018243 0.865884
vn 0.258775 -0.018244 0.965765
vn 0.258776 -0.018244 0.965765
vn 0.026357 -0.018238 0.999486
vn 0.026421 -0.018238 0.999485
vn 0.999834 -0.018243 0.000001
vn 0.999834 -0.018243 0.000001
vn 0.000002 -0.018244 0.999834
vn 0.000002 -0.018244 0.999834
vn 0.007802 -0.018243 0.999803
vn 0.007775 -0.018243 0.999803
vn -0.000001 -0.018244 -0.999834
vn -0.000001 -0.018244 -0.999834
vn 0.007774 -0.018244 -0.999803
vn 0.007800 -0.018244 -0.999803
vn 0.999803 -0.018243 0.007799
vn 0.999803 -0.018243 0.007772
vn 0.950909 -0.018244 0.308932
vn 0.950909 -0.018244 0.308931
vn 0.808880 -0.018244 0.587691
vn 0.808880 -0.018244 0.587691
vn 0.587677 -0.018244 0.808890
vn 0.587677 -0.018244 0.808890
vn 0.308964 -0.018243 0.950899
vn 0.308963 -0.018243 0.950899
vn 0.999834 -0.018243 -0.000000
vn 0.999834 -0.018243 -0.000000
vn 0.999486 -0.018236 0.026358
vn 0.999485 -0.018236 0.026422
vn 0.308941 -0.018244 -0.950906
vn 0.308941 -0.018244 -0.950906
vn 0.587695 -0.018244 -0.808877
vn 0.587695 -0.018244 -0.808876
vn 0.808890 -0.018244 -0.587677
vn 0.808890 -0.018244 -0.587677
vn 0.950897 -0.018243 -0.308970
vn 0.950897 -0.018243 -0.308970
vn 0.999803 -0.018242 -0.007775
vn 0.999803 -0.018242 -0.007802
vn 0.999834 -0.018243 0.000001
vn 0.999834 -0.018243 0.000001
vn 0.999485 -0.018238 -0.026422
vn 0.999486 -0.018238 -0.026358
vn 0.258776 -0.018243 -0.965765
vn 0.258776 -0.018243 -0.965765
vn 0.026422 -0.018237 -0.999485
vn 0.026358 -0.018237 -0.999486
vn 0.499928 -0.018243 -0.865875
vn 0.499928 -0.018243 -0.865875
vn 0.706982 -0.018242 -0.706996
vn 0.706982 -0.018242 -0.706996
vn 0.865876 -0.018243 -0.499925
vn 0.865877 -0.018243 -0.499925
vn 0.965766 -0.018246 -0.258774
vn 0.965765 -0.018246 -0.258775
vn 0.965760 -0.018244 0.258794
vn 0.965760 -0.018244 0.258794
vn 0.865878 -0.018245 0.499922
vn 0.865878 -0.018245 0.499923
vn 0.706992 -0.018244 0.706986
vn 0.706992 -0.018244 0.706986
vn 0.499911 -0.018243 0.865884
vn 0.499912 -0.018243 0.865884
vn 0.258777 -0.018244 0.965765
vn 0.258777 -0.018244 0.965765
vn 0.026358 -0.018237 0.999486
vn 0.026422 -0.018237 0.999485
vn 0.000001 -0.018243 -0.999834
vn 0.000001 -0.018243 -0.999834
vn 0.000000 -0.018243 -0.999834
vn 0.000000 -0.018243 -0.999834
vn 0.000001 -0.018243 0.999834
vn 0.000001 -0.018243 0.999834
vn 0.000000 -0.018243 0.999834
vn 0.000000 -0.018243 0.999834
vn 0.000000 -0.018243 -0.999834
vn 0.000000 -0.018243 -0.999834
vn 0.000000 -0.018243 -0.999834
vn 0.000000 -0.018243 -0.999834
vn 0.000000 -0.018243 0.999834
vn 0.000000 -0.018243 0.999834
vn 0.000000 -0.018243 0.999834
vn 0.000000 -0.018243 0.999834
s 1
g walls
usemtl initialShadingGroup
f 3/2/1 63/62/2 62/63/3 2/1/4
f 1/3/5 64/64/6 63/62/2 3/2/1
f 5/5/7 66/65/8 65/66/9 4/4/10
f 2/1/4 62/63/3 66/65/8 5/5/7
f 7/7/11 68/67/12 67/68/13 6/6/14
f 4/4/10 65/66/9 68/67/12 7/7/11
f 9/9/15 70/69/16 69/70/17 8/8/18
f 10/10/19 71/71/20 70/69/16 9/9/15
f 11/11/21 72/72/22 71/71/20 10/10/19
f 12/12/23 73/73/24 72/72/22 11/11/21
f 13/13/25 74/74/26 73/73/24 12/12/23
f 6/6/14 67/68/13 74/74/26 13/13/25
f 15/14/27 75/75/28 64/64/6 1/3/5
f 14/15/29 76/76/30 75/75/28 15/14/27
f 17/17/31 78/77/32 77/78/33 16/16/34
f 18/18/35 79/79/36 78/77/32 17/17/31
f 19/19/37 80/80/38 79/79/36 18/18/35
f 20/20/39 81/81/40 80/80/38 19/19/37
f 21/21/41 82/82/42 81/81/40 20/20/39
f 22/22/43 83/83/44 82/82/42 21/21/41
f 23/23/45 84/84/46 76/76/30 14/15/29
f 16/16/34 77/78/33 84/84/46 23/23/45
f 25/24/47 85/85/48 83/83/44 22/22/43
f 24/25/49 86/86/50 85/85/48 25/24/47
f 27/27/51 88/87/52 87/88/53 26/26/54
f 8/8/18 69/70/17 88/87/52 27/27/51
f 28/29/55 90/89/56 89/90/57 29/28/58
f 29/28/58 89/90/57 91/91/59 30/30/60
f 30/30/60 91/91/59 92/92/61 31/31/62
f 31/31/62 92/92/61 93/93/63 32/32/64
f 32/32/64 93/93/63 86/86/50 24/25/49
f 34/33/65 94/94/66 90/89/56 28/29/55
f 33/34/67 95/95/68 94/94/66 34/33/65
f 26/26/54 87/88/53 96/96/69 35/35/70
f 35/35/70 96/96/69 97/97/71 36/36/72
f 36/36/72 97/97/71 98/98/73 37/37/74
f 37/37/74 98/98/73 99/99/75 38/38/76
f 38/38/76 99/99/75 100/100/77 39/39/78
f 41/41/79 102/101/80 101/102/81 40/40/82
f 39/39/78 100/100/77 102/101/80 41/41/79
f 43/43/83 104/103/84 103/104/85 42/42/86
f 44/44/87 105/105/88 104/103/84 43/43/83
f 45/45/89 106/106/90 105/105/88 44/44/87
f 46/46/91 107/107/92 106/106/90 45/45/89
f 47/47/93 108/108/94 107/107/92 46/46/91
f 40/40/82 101/102/81 108/108/94 47/47/93
f 48/48/95 109/109/96 95/95/68 33/34/67
f 49/49/97 110/110/98 109/109/96 48/48/95
f 50/50/99 111/111/100 110/110/98 49/49/97
f 51/51/101 112/112/102 111/111/100 50/50/99
f 52/52/103 113/113/104 112/112/102 51/51/101
f 53/53/105 114/114/106 113/113/104 52/52/103
f 55/55/107 116/115/108 115/116/109 54/54/110
f 42/42/86 103/104/85 116/115/108 55/55/107
f 57/56/111 117/117/112 114/114/106 53/53/105
f 56/57/113 118/118/114 117/117/112 57/56/111
f 59/59/115 120/119/116 119/120/117 58/58/118
f 54/54/110 115/116/109 120/119/116 59/59/115
f 61/60/119 121/121/120 118/118/114 56/57/113
f 60/61/121 122/122/122 121/121/120 61/60/119
